REM DIRINDEX 1\2,1\3,1\4,1\5,1\6
REM DIRNAME folder01,folder02,folder03,folder04,folder05,folder06
TITLE ""
FILE "Disc3Track60.mp3" MP3
  TRACK 01 AUDIO
    TITLE "3:cjc030_05890"
    INDEX 01 00:00:00
  TRACK 02 AUDIO
    TITLE "0:"
    INDEX 01 00:01:03
  TRACK 03 AUDIO
    TITLE "4:cjc030_05891"
    INDEX 01 00:01:13
  TRACK 04 AUDIO
    TITLE "0:"
    INDEX 01 00:03:29
  TRACK 05 AUDIO
    TITLE "5:cjc030_05892"
    INDEX 01 00:03:39
  TRACK 06 AUDIO
    TITLE "0:"
    INDEX 01 00:04:48
  TRACK 07 AUDIO
    TITLE "6:cjc030_05893"
    INDEX 01 00:04:62
  TRACK 08 AUDIO
    TITLE "0:"
    INDEX 01 00:08:15
  TRACK 09 AUDIO
    TITLE "3:cjc030_05894"
    INDEX 01 00:08:62
  TRACK 10 AUDIO
    TITLE "0:"
    INDEX 01 00:10:14
  TRACK 11 AUDIO
    TITLE "4:cjc030_05895"
    INDEX 01 00:10:23
  TRACK 12 AUDIO
    TITLE "0:"
    INDEX 01 00:11:07
  TRACK 13 AUDIO
    TITLE "5:cjc030_05896"
    INDEX 01 00:11:15
  TRACK 14 AUDIO
    TITLE "0:"
    INDEX 01 00:12:44
  TRACK 15 AUDIO
    TITLE "3:cjc030_05897"
    INDEX 01 00:13:26
  TRACK 16 AUDIO
    TITLE "0:"
    INDEX 01 00:14:33
  TRACK 17 AUDIO
    TITLE "4:cjc030_05898"
    INDEX 01 00:14:43
  TRACK 18 AUDIO
    TITLE "0:"
    INDEX 01 00:16:53
  TRACK 19 AUDIO
    TITLE "5:cjc030_05899"
    INDEX 01 00:16:63
  TRACK 20 AUDIO
    TITLE "0:"
    INDEX 01 00:17:70
  TRACK 21 AUDIO
    TITLE "6:cjc030_05900"
    INDEX 01 00:18:07
  TRACK 22 AUDIO
    TITLE "0:"
    INDEX 01 00:22:01
  TRACK 23 AUDIO
    TITLE "3:cjc030_05901"
    INDEX 01 00:22:48
  TRACK 24 AUDIO
    TITLE "0:"
    INDEX 01 00:23:65
  TRACK 25 AUDIO
    TITLE "4:cjc030_05902"
    INDEX 01 00:24:00
  TRACK 26 AUDIO
    TITLE "0:"
    INDEX 01 00:25:13
  TRACK 27 AUDIO
    TITLE "5:cjc030_05903"
    INDEX 01 00:25:23
  TRACK 28 AUDIO
    TITLE "0:"
    INDEX 01 00:26:40
  TRACK 29 AUDIO
    TITLE "6:cjc030_05904"
    INDEX 01 00:26:54
  TRACK 30 AUDIO
    TITLE "0:"
    INDEX 01 00:31:04
  TRACK 31 AUDIO
    TITLE "3:cjc030_05905"
    INDEX 01 00:31:53
  TRACK 32 AUDIO
    TITLE "0:"
    INDEX 01 00:33:07
  TRACK 33 AUDIO
    TITLE "4:cjc030_05906"
    INDEX 01 00:33:17
  TRACK 34 AUDIO
    TITLE "0:"
    INDEX 01 00:34:02
  TRACK 35 AUDIO
    TITLE "5:cjc030_05907"
    INDEX 01 00:34:12
  TRACK 36 AUDIO
    TITLE "0:"
    INDEX 01 00:35:41
  TRACK 37 AUDIO
    TITLE "3:cjc030_05908"
    INDEX 01 00:36:19
  TRACK 38 AUDIO
    TITLE "0:"
    INDEX 01 00:37:50
  TRACK 39 AUDIO
    TITLE "4:cjc030_05909"
    INDEX 01 00:37:57
  TRACK 40 AUDIO
    TITLE "0:"
    INDEX 01 00:40:09
  TRACK 41 AUDIO
    TITLE "5:cjc030_05910"
    INDEX 01 00:40:19
  TRACK 42 AUDIO
    TITLE "0:"
    INDEX 01 00:41:49
  TRACK 43 AUDIO
    TITLE "6:cjc030_05911"
    INDEX 01 00:41:61
  TRACK 44 AUDIO
    TITLE "0:"
    INDEX 01 00:43:54
  TRACK 45 AUDIO
    TITLE "3:cjc030_05912"
    INDEX 01 00:44:28
  TRACK 46 AUDIO
    TITLE "0:"
    INDEX 01 00:45:69
  TRACK 47 AUDIO
    TITLE "4:cjc030_05913"
    INDEX 01 00:46:02
  TRACK 48 AUDIO
    TITLE "0:"
    INDEX 01 00:47:30
  TRACK 49 AUDIO
    TITLE "5:cjc030_05914"
    INDEX 01 00:47:38
  TRACK 50 AUDIO
    TITLE "0:"
    INDEX 01 00:49:06
  TRACK 51 AUDIO
    TITLE "6:cjc030_05915"
    INDEX 01 00:49:18
  TRACK 52 AUDIO
    TITLE "0:"
    INDEX 01 00:51:15
  TRACK 53 AUDIO
    TITLE "3:cjc030_05916"
    INDEX 01 00:51:62
  TRACK 54 AUDIO
    TITLE "0:"
    INDEX 01 00:53:08
  TRACK 55 AUDIO
    TITLE "4:cjc030_05917"
    INDEX 01 00:53:17
  TRACK 56 AUDIO
    TITLE "0:"
    INDEX 01 00:55:67
  TRACK 57 AUDIO
    TITLE "5:cjc030_05918"
    INDEX 01 00:56:02
  TRACK 58 AUDIO
    TITLE "0:"
    INDEX 01 00:57:23
  TRACK 59 AUDIO
    TITLE "6:cjc030_05919"
    INDEX 01 00:57:37
  TRACK 60 AUDIO
    TITLE "0:"
    INDEX 01 01:01:19
